<svg version="1.1" id="Layer_1" xmlns="http://www.w3.org/2000/svg" xmlns:xlink="http://www.w3.org/1999/xlink" x="0px" y="0px"
	 width="100%" viewBox="0 0 4096 4096" enable-background="new 0 0 4096 4096" xml:space="preserve">
<path fill="#FFFFFF" opacity="1.000000" stroke="none" 
	d="
M2208.000000,4098.000000 
	C1472.000000,4098.000000 737.000000,4098.000000 2.000000,4098.000000 
	C2.000000,2732.666748 2.000000,1367.333374 2.000000,2.000000 
	C1367.333374,2.000000 2732.666748,2.000000 4098.000000,2.000000 
	C4098.000000,1367.333374 4098.000000,2732.666748 4098.000000,4098.000000 
	C3468.333252,4098.000000 2838.666748,4098.000000 2208.000000,4098.000000 
M2166.011963,129.105225 
	C2142.030762,128.437073 2118.053467,127.476875 2094.067627,127.156830 
	C2028.389893,126.280449 1962.743896,127.556595 1897.232666,132.448395 
	C1816.092896,138.507202 1735.665405,149.955338 1655.885498,165.942429 
	C1553.154053,186.528824 1452.795410,215.464127 1355.007202,252.990463 
	C1155.426514,329.579895 974.106995,437.438904 810.367981,574.621704 
	C692.404785,673.452942 586.802368,784.189331 494.795837,907.775757 
	C386.646149,1053.046021 301.792358,1210.925903 238.219055,1380.318604 
	C199.884644,1482.461548 170.609665,1587.206787 150.388992,1694.455933 
	C141.127289,1743.579346 133.772385,1792.988281 128.347519,1842.667725 
	C123.244904,1889.395996 120.182678,1936.279175 119.136391,1983.288086 
	C117.377663,2062.306152 118.026360,2141.291260 124.577286,2220.088867 
	C132.043472,2309.895264 147.272705,2398.509766 168.493607,2486.054688 
	C207.713760,2647.853516 268.651123,2801.271973 347.833221,2947.560303 
	C421.161407,3083.033447 510.541199,3207.100586 613.495972,3321.559082 
	C734.568420,3456.159424 870.614685,3573.178955 1023.695251,3669.963379 
	C1212.114746,3789.091309 1414.987061,3873.676514 1632.794678,3921.874023 
	C1752.236694,3948.304688 1873.193726,3962.461914 1995.468872,3965.395264 
	C2129.447021,3968.609619 2262.507080,3959.573975 2394.595459,3936.304199 
	C2506.123291,3916.656738 2614.799805,3886.772217 2720.687012,3846.839355 
	C2858.678223,3794.799561 2988.889404,3727.526367 3111.726074,3645.875244 
	C3268.468994,3541.685547 3408.038086,3418.056885 3529.550049,3274.458984 
	C3690.650635,3084.077393 3810.007324,2870.015137 3888.367188,2633.206543 
	C3926.354736,2518.406006 3952.582764,2400.988525 3966.635010,2280.816162 
	C3973.491211,2222.182617 3978.410889,2163.454346 3979.768311,2104.442871 
	C3981.863037,2013.376221 3978.712646,1922.558472 3968.432373,1831.961914 
	C3961.740967,1772.991089 3953.199463,1714.356323 3941.202148,1656.259521 
	C3918.048584,1544.138062 3884.539307,1435.141846 3841.986816,1328.855835 
	C3783.369629,1182.444214 3707.589111,1045.591919 3614.205566,918.535156 
	C3516.987305,786.260620 3404.350098,668.580444 3277.773193,564.127502 
	C3116.107666,430.719482 2937.821777,325.637085 2742.297607,250.045425 
	C2619.166748,202.441788 2492.298340,168.739273 2361.650635,149.409454 
	C2297.346680,139.895462 2232.821045,132.609863 2166.011963,129.105225 
z"/>
<path fill="#121112" opacity="1.000000" stroke="none" 
	d="
M2166.946289,129.186264 
	C2232.821045,132.609863 2297.346680,139.895462 2361.650635,149.409454 
	C2492.298340,168.739273 2619.166748,202.441788 2742.297607,250.045425 
	C2937.821777,325.637085 3116.107666,430.719482 3277.773193,564.127502 
	C3404.350098,668.580444 3516.987305,786.260620 3614.205566,918.535156 
	C3707.589111,1045.591919 3783.369629,1182.444214 3841.986816,1328.855835 
	C3884.539307,1435.141846 3918.048584,1544.138062 3941.202148,1656.259521 
	C3953.199463,1714.356323 3961.740967,1772.991089 3968.432373,1831.961914 
	C3978.712646,1922.558472 3981.863037,2013.376221 3979.768311,2104.442871 
	C3978.410889,2163.454346 3973.491211,2222.182617 3966.635010,2280.816162 
	C3952.582764,2400.988525 3926.354736,2518.406006 3888.367188,2633.206543 
	C3810.007324,2870.015137 3690.650635,3084.077393 3529.550049,3274.458984 
	C3408.038086,3418.056885 3268.468994,3541.685547 3111.726074,3645.875244 
	C2988.889404,3727.526367 2858.678223,3794.799561 2720.687012,3846.839355 
	C2614.799805,3886.772217 2506.123291,3916.656738 2394.595459,3936.304199 
	C2262.507080,3959.573975 2129.447021,3968.609619 1995.468872,3965.395264 
	C1873.193726,3962.461914 1752.236694,3948.304688 1632.794678,3921.874023 
	C1414.987061,3873.676514 1212.114746,3789.091309 1023.695251,3669.963379 
	C870.614685,3573.178955 734.568420,3456.159424 613.495972,3321.559082 
	C510.541199,3207.100586 421.161407,3083.033447 347.833221,2947.560303 
	C268.651123,2801.271973 207.713760,2647.853516 168.493607,2486.054688 
	C147.272705,2398.509766 132.043472,2309.895264 124.577286,2220.088867 
	C118.026360,2141.291260 117.377663,2062.306152 119.136391,1983.288086 
	C120.182678,1936.279175 123.244904,1889.395996 128.347519,1842.667725 
	C133.772385,1792.988281 141.127289,1743.579346 150.388992,1694.455933 
	C170.609665,1587.206787 199.884644,1482.461548 238.219055,1380.318604 
	C301.792358,1210.925903 386.646149,1053.046021 494.795837,907.775757 
	C586.802368,784.189331 692.404785,673.452942 810.367981,574.621704 
	C974.106995,437.438904 1155.426514,329.579895 1355.007202,252.990463 
	C1452.795410,215.464127 1553.154053,186.528824 1655.885498,165.942429 
	C1735.665405,149.955338 1816.092896,138.507202 1897.232666,132.448395 
	C1962.743896,127.556595 2028.389893,126.280449 2094.067627,127.156830 
	C2118.053467,127.476875 2142.030762,128.437073 2166.946289,129.186264 
M3107.606689,1478.611694 
	C3077.882812,1482.487427 3048.158936,1486.363159 3018.084961,1490.284546 
	C3015.974365,1495.733521 3013.830078,1500.945557 3011.922852,1506.243286 
	C2971.099121,1619.621704 2930.227295,1732.982910 2889.517334,1846.402222 
	C2820.123779,2039.735596 2750.849609,2233.112061 2681.481445,2426.454590 
	C2673.494141,2448.717285 2665.573486,2471.102295 2652.452393,2490.982422 
	C2647.005371,2499.234619 2640.382568,2506.886719 2633.361328,2513.873779 
	C2626.595459,2520.606934 2617.751465,2523.833252 2607.991943,2524.126221 
	C2590.331055,2524.655762 2577.275146,2516.676758 2567.851562,2502.287109 
	C2559.443848,2489.447998 2555.318604,2474.903076 2554.173340,2459.890869 
	C2552.197998,2433.995605 2550.245605,2408.013916 2550.228027,2382.067383 
	C2550.088135,2174.738281 2550.241455,1967.408691 2550.729980,1760.080200 
	C2550.819580,1722.111816 2552.477783,1684.132324 2554.121094,1646.188599 
	C2554.972900,1626.510132 2558.439209,1607.112061 2565.975098,1588.698120 
	C2579.743408,1555.055420 2603.158447,1532.258545 2639.393066,1524.369629 
	C2649.128906,1522.250000 2659.112305,1521.261108 2668.986328,1519.781006 
	C2673.926270,1519.040649 2678.994873,1518.819946 2683.797119,1517.566772 
	C2695.567383,1514.495605 2702.732666,1503.340698 2701.482178,1490.804199 
	C2700.159424,1477.543945 2692.924561,1470.764160 2679.186523,1470.008057 
	C2676.194092,1469.843262 2673.188721,1469.884888 2670.189209,1469.885010 
	C2550.191406,1469.887207 2430.193359,1469.895752 2310.195557,1469.903442 
	C2306.912598,1469.903687 2303.629883,1469.903320 2299.115967,1469.903320 
	C2225.572754,1676.803711 2152.101562,1883.502563 2078.115234,2091.649902 
	C2076.436035,2087.052490 2075.145020,2083.696045 2073.979004,2080.296631 
	C2065.013672,2054.159668 2056.248779,2027.953003 2047.096436,2001.881958 
	C1986.018433,1827.897705 1924.861328,1653.941040 1863.720581,1479.978760 
	C1860.305176,1470.261597 1860.265381,1470.207642 1849.412720,1470.189941 
	C1738.414795,1470.009399 1627.416870,1469.833130 1516.418945,1469.749146 
	C1511.127930,1469.745239 1505.654053,1469.910278 1500.580200,1471.218018 
	C1487.517944,1474.584717 1481.050171,1485.933228 1484.409546,1498.922485 
	C1486.791260,1508.131836 1492.826050,1514.202637 1502.166260,1515.883179 
	C1512.309326,1517.708374 1522.592529,1518.885376 1532.860474,1519.864380 
	C1586.533569,1524.980835 1623.151123,1556.507446 1634.118896,1609.377563 
	C1637.878540,1627.500488 1639.267944,1646.395142 1639.379639,1664.951416 
	C1640.459229,1844.609131 1641.408325,2024.269653 1641.558350,2203.930176 
	C1641.612427,2268.577637 1639.492432,2333.229492 1638.161499,2397.875000 
	C1637.782959,2416.264160 1634.854980,2434.362793 1629.790161,2452.065186 
	C1619.659058,2487.474365 1596.904175,2511.021240 1561.958862,2522.128418 
	C1549.664185,2526.036133 1536.660278,2527.764648 1523.930908,2530.234619 
	C1514.138916,2532.135010 1504.044067,2532.835205 1494.491211,2535.518799 
	C1481.986816,2539.031250 1476.528564,2548.725342 1478.100220,2561.661133 
	C1479.572144,2573.776367 1487.258301,2581.091553 1499.967896,2582.378906 
	C1502.283691,2582.613525 1504.626587,2582.657715 1506.957031,2582.657959 
	C1624.954956,2582.673096 1742.952759,2582.681641 1860.950684,2582.643311 
	C1864.935791,2582.642090 1869.009521,2582.595947 1872.888916,2581.812744 
	C1884.381714,2579.492432 1891.561646,2570.348877 1891.912354,2558.182861 
	C1892.281250,2545.380615 1886.240845,2537.050537 1874.071289,2534.026611 
	C1869.884644,2532.986084 1865.569092,2532.364990 1861.275879,2531.871094 
	C1840.075684,2529.432373 1818.954224,2526.866699 1798.979126,2518.516846 
	C1775.030029,2508.505859 1757.447021,2492.051025 1748.057861,2467.801025 
	C1743.756958,2456.692383 1740.526733,2445.031494 1738.137573,2433.349609 
	C1733.031372,2408.382324 1733.663086,2382.959229 1733.703003,2357.628906 
	C1733.952148,2199.632080 1734.225830,2041.635498 1734.528442,1883.638916 
	C1734.531494,1882.027832 1735.037598,1880.417847 1735.711426,1876.418579 
	C1737.814453,1881.841309 1739.069092,1884.867310 1740.170898,1887.947998 
	C1781.430176,2003.304443 1822.993530,2118.553223 1863.820312,2234.062500 
	C1895.666260,2324.162598 1926.577515,2414.593262 1957.971436,2504.853516 
	C1959.825439,2510.183838 1961.737061,2515.620605 1964.554199,2520.466064 
	C1973.088867,2535.145752 1991.736206,2536.353027 2002.038452,2522.817871 
	C2005.195557,2518.669922 2007.325806,2513.575439 2009.182373,2508.635010 
	C2013.984741,2495.855469 2018.207886,2482.859131 2022.951050,2470.056641 
	C2096.870605,2270.533691 2170.833740,2071.026855 2244.816162,1871.527344 
	C2245.801758,1868.869873 2247.167480,1866.353394 2248.355469,1863.771118 
	C2250.012451,1866.824951 2250.012207,1869.630615 2250.012695,1872.436279 
	C2250.045410,2042.766602 2250.211914,2213.097168 2249.928467,2383.427002 
	C2249.895996,2403.025879 2248.605469,2422.807373 2245.716797,2442.178955 
	C2239.212646,2485.800781 2215.772705,2515.673340 2171.540771,2526.179688 
	C2156.684814,2529.708496 2141.346191,2531.159180 2126.323730,2534.056152 
	C2120.215332,2535.234131 2113.850586,2536.824951 2108.505127,2539.832275 
	C2099.287109,2545.018799 2095.879150,2555.534668 2098.649170,2565.902588 
	C2101.118896,2575.146240 2108.853516,2581.517822 2119.060303,2582.252441 
	C2124.702637,2582.658447 2130.386719,2582.559570 2136.052002,2582.560303 
	C2373.381104,2582.582275 2610.710449,2582.592529 2848.039551,2582.582764 
	C2853.703369,2582.582520 2859.395508,2582.638916 2865.021484,2582.107910 
	C2868.944580,2581.737549 2872.971191,2580.887695 2876.612061,2579.413330 
	C2886.059570,2575.587402 2891.880615,2566.937988 2891.201660,2557.601562 
	C2890.485596,2547.753174 2885.439941,2540.546875 2876.011719,2537.253906 
	C2871.036377,2535.516357 2865.707031,2534.575684 2860.457275,2533.878662 
	C2841.274902,2531.330811 2822.179932,2528.548096 2804.157227,2520.947266 
	C2774.844727,2508.584717 2764.105469,2490.185791 2767.981445,2458.665039 
	C2768.305664,2456.029785 2768.790283,2453.382080 2769.529297,2450.835938 
	C2772.683838,2439.970215 2775.496826,2428.976074 2779.270508,2418.324707 
	C2804.510010,2347.081055 2829.958252,2275.911377 2855.375488,2204.730713 
	C2856.129883,2202.618164 2857.289551,2200.650146 2858.107666,2198.934570 
	C2957.700684,2198.934570 3056.638916,2198.934570 3155.977783,2198.934570 
	C3157.058838,2201.533691 3158.185547,2203.897949 3159.042480,2206.355713 
	C3183.382324,2276.147705 3207.750977,2345.929199 3231.956543,2415.767334 
	C3235.986084,2427.393555 3239.932861,2439.117920 3242.795166,2451.065918 
	C3250.271240,2482.273926 3239.558594,2504.409668 3210.581787,2518.195068 
	C3203.711914,2521.463135 3196.410156,2524.306396 3188.995605,2525.846436 
	C3173.365723,2529.092041 3157.489014,2531.130859 3141.796387,2534.101318 
	C3134.336426,2535.513428 3126.654541,2537.012939 3119.806396,2540.099609 
	C3109.650391,2544.677002 3105.776611,2553.969482 3107.698730,2564.991943 
	C3109.313232,2574.249023 3116.436768,2580.624512 3127.290771,2582.047119 
	C3131.566162,2582.607178 3135.937988,2582.567871 3140.265869,2582.568604 
	C3303.596436,2582.596436 3466.926758,2582.601318 3630.257324,2582.574219 
	C3634.247070,2582.573486 3638.309814,2582.580322 3642.213867,2581.884521 
	C3659.168701,2578.862549 3667.618652,2564.306152 3662.017334,2548.348389 
	C3658.682373,2538.847412 3650.978271,2535.639893 3642.056152,2534.020752 
	C3627.316650,2531.345947 3612.448975,2529.224121 3597.868896,2525.856934 
	C3571.513184,2519.769775 3550.966064,2505.130615 3538.456543,2480.897217 
	C3530.690430,2465.852051 3523.275146,2450.422852 3517.744629,2434.458252 
	C3462.054932,2273.707031 3406.765137,2112.817139 3351.409180,1951.949829 
	C3299.851807,1802.120117 3248.350098,1652.271240 3196.827393,1502.429688 
	C3192.954102,1491.165283 3189.108398,1479.891357 3185.182129,1468.423706 
	C3159.499023,1471.796143 3134.438721,1475.086914 3107.606689,1478.611694 
M847.594788,1914.659058 
	C853.231323,1853.499023 863.228149,1793.106812 880.261292,1734.029663 
	C890.612732,1698.126953 903.020203,1662.979492 922.146240,1630.597656 
	C943.011108,1595.271973 969.334412,1565.256470 1005.998352,1545.567383 
	C1061.378662,1515.827148 1119.290527,1513.587280 1178.507324,1531.179810 
	C1231.079834,1546.798462 1272.502686,1579.087891 1306.903931,1620.818848 
	C1346.251831,1668.550415 1372.919067,1722.948608 1389.866089,1782.283447 
	C1391.689209,1788.666626 1393.646729,1795.109131 1396.461792,1801.090942 
	C1402.405273,1813.720215 1414.520630,1819.876831 1427.601196,1817.666260 
	C1437.744019,1815.952148 1446.268799,1806.225952 1448.083862,1793.302002 
	C1449.099365,1786.071411 1449.403076,1778.692017 1449.422852,1771.378052 
	C1449.682983,1675.045410 1449.842896,1578.712402 1449.986572,1482.379517 
	C1449.992065,1478.725708 1449.993042,1474.988159 1449.279541,1471.433472 
	C1447.453125,1462.334351 1442.802490,1455.135254 1433.229370,1452.958618 
	C1423.555664,1450.759155 1415.219849,1453.957031 1409.550049,1462.060913 
	C1405.767090,1467.467896 1403.086182,1473.649048 1399.947388,1479.502686 
	C1396.964722,1485.065186 1394.542847,1491.008179 1390.977905,1496.163940 
	C1378.558105,1514.125732 1365.171631,1517.915161 1345.254761,1509.163330 
	C1335.200317,1504.745239 1325.492676,1499.545166 1315.552612,1494.859009 
	C1187.806641,1434.635376 1055.757080,1420.987915 919.571655,1460.369019 
	C803.512817,1493.929932 710.903625,1560.979858 643.262512,1661.239014 
	C580.859314,1753.734375 550.141968,1857.351562 540.381897,1967.591797 
	C535.457397,2023.213989 537.695618,2078.781982 546.011902,2134.098633 
	C556.692688,2205.143311 576.771545,2273.146484 609.896240,2337.104492 
	C650.036072,2414.607666 706.115295,2477.507568 780.624939,2523.465576 
	C841.796692,2561.196777 907.972656,2585.367920 979.005310,2596.494873 
	C1052.526489,2608.011719 1125.069336,2604.582275 1196.750610,2584.000977 
	C1244.290405,2570.351074 1287.745605,2548.232666 1329.066284,2521.530762 
	C1340.258057,2514.298340 1351.156372,2506.611816 1362.348022,2499.379150 
	C1370.968506,2493.808105 1376.926758,2493.759277 1383.823975,2501.110352 
	C1389.395386,2507.048340 1393.997559,2514.270508 1397.523071,2521.643311 
	C1400.781982,2528.458496 1401.990723,2536.244873 1404.197266,2543.575195 
	C1405.443237,2547.714355 1406.526978,2551.956543 1408.304810,2555.870361 
	C1411.977783,2563.956543 1418.549316,2567.928223 1427.435181,2567.747070 
	C1436.464355,2567.563477 1442.588745,2562.839600 1445.631348,2554.606201 
	C1447.221680,2550.302979 1448.128052,2545.585205 1448.417114,2540.996338 
	C1449.003418,2531.690430 1449.141968,2522.344482 1449.147217,2513.015137 
	C1449.195068,2428.348633 1449.210449,2343.682373 1449.126709,2259.015869 
	C1449.116455,2248.690674 1448.708252,2238.349609 1448.001465,2228.048828 
	C1447.686768,2223.463379 1446.762573,2218.728271 1445.087158,2214.465088 
	C1440.807861,2203.576416 1433.419556,2199.200928 1421.688599,2199.726318 
	C1409.120361,2200.289307 1399.990112,2205.882324 1395.835449,2218.083740 
	C1391.651733,2230.370361 1387.617554,2242.718750 1383.940552,2255.165039 
	C1367.187012,2311.872559 1343.251831,2365.098145 1307.265503,2412.363770 
	C1257.461060,2477.778320 1191.762573,2514.153564 1109.209106,2516.724609 
	C1034.041748,2519.065430 973.813721,2489.480957 931.132690,2426.776855 
	C911.685059,2398.205811 898.411194,2366.557861 887.950684,2333.723877 
	C868.564148,2272.871582 856.438049,2210.473145 849.571838,2147.084717 
	C841.257568,2070.328857 840.617859,1993.428101 847.594788,1914.659058 
z"/>
<path fill="#FEFEFE" opacity="1.000000" stroke="none" 
	d="
M3108.492432,1478.494629 
	C3134.438721,1475.086914 3159.499023,1471.796143 3185.182129,1468.423706 
	C3189.108398,1479.891357 3192.954102,1491.165283 3196.827393,1502.429688 
	C3248.350098,1652.271240 3299.851807,1802.120117 3351.409180,1951.949829 
	C3406.765137,2112.817139 3462.054932,2273.707031 3517.744629,2434.458252 
	C3523.275146,2450.422852 3530.690430,2465.852051 3538.456543,2480.897217 
	C3550.966064,2505.130615 3571.513184,2519.769775 3597.868896,2525.856934 
	C3612.448975,2529.224121 3627.316650,2531.345947 3642.056152,2534.020752 
	C3650.978271,2535.639893 3658.682373,2538.847412 3662.017334,2548.348389 
	C3667.618652,2564.306152 3659.168701,2578.862549 3642.213867,2581.884521 
	C3638.309814,2582.580322 3634.247070,2582.573486 3630.257324,2582.574219 
	C3466.926758,2582.601318 3303.596436,2582.596436 3140.265869,2582.568604 
	C3135.937988,2582.567871 3131.566162,2582.607178 3127.290771,2582.047119 
	C3116.436768,2580.624512 3109.313232,2574.249023 3107.698730,2564.991943 
	C3105.776611,2553.969482 3109.650391,2544.677002 3119.806396,2540.099609 
	C3126.654541,2537.012939 3134.336426,2535.513428 3141.796387,2534.101318 
	C3157.489014,2531.130859 3173.365723,2529.092041 3188.995605,2525.846436 
	C3196.410156,2524.306396 3203.711914,2521.463135 3210.581787,2518.195068 
	C3239.558594,2504.409668 3250.271240,2482.273926 3242.795166,2451.065918 
	C3239.932861,2439.117920 3235.986084,2427.393555 3231.956543,2415.767334 
	C3207.750977,2345.929199 3183.382324,2276.147705 3159.042480,2206.355713 
	C3158.185547,2203.897949 3157.058838,2201.533691 3155.977783,2198.934570 
	C3056.638916,2198.934570 2957.700684,2198.934570 2858.107666,2198.934570 
	C2857.289551,2200.650146 2856.129883,2202.618164 2855.375488,2204.730713 
	C2829.958252,2275.911377 2804.510010,2347.081055 2779.270508,2418.324707 
	C2775.496826,2428.976074 2772.683838,2439.970215 2769.529297,2450.835938 
	C2768.790283,2453.382080 2768.305664,2456.029785 2767.981445,2458.665039 
	C2764.105469,2490.185791 2774.844727,2508.584717 2804.157227,2520.947266 
	C2822.179932,2528.548096 2841.274902,2531.330811 2860.457275,2533.878662 
	C2865.707031,2534.575684 2871.036377,2535.516357 2876.011719,2537.253906 
	C2885.439941,2540.546875 2890.485596,2547.753174 2891.201660,2557.601562 
	C2891.880615,2566.937988 2886.059570,2575.587402 2876.612061,2579.413330 
	C2872.971191,2580.887695 2868.944580,2581.737549 2865.021484,2582.107910 
	C2859.395508,2582.638916 2853.703369,2582.582520 2848.039551,2582.582764 
	C2610.710449,2582.592529 2373.381104,2582.582275 2136.052002,2582.560303 
	C2130.386719,2582.559570 2124.702637,2582.658447 2119.060303,2582.252441 
	C2108.853516,2581.517822 2101.118896,2575.146240 2098.649170,2565.902588 
	C2095.879150,2555.534668 2099.287109,2545.018799 2108.505127,2539.832275 
	C2113.850586,2536.824951 2120.215332,2535.234131 2126.323730,2534.056152 
	C2141.346191,2531.159180 2156.684814,2529.708496 2171.540771,2526.179688 
	C2215.772705,2515.673340 2239.212646,2485.800781 2245.716797,2442.178955 
	C2248.605469,2422.807373 2249.895996,2403.025879 2249.928467,2383.427002 
	C2250.211914,2213.097168 2250.045410,2042.766602 2250.012695,1872.436279 
	C2250.012207,1869.630615 2250.012451,1866.824951 2248.355469,1863.771118 
	C2247.167480,1866.353394 2245.801758,1868.869873 2244.816162,1871.527344 
	C2170.833740,2071.026855 2096.870605,2270.533691 2022.951050,2470.056641 
	C2018.207886,2482.859131 2013.984741,2495.855469 2009.182373,2508.635010 
	C2007.325806,2513.575439 2005.195557,2518.669922 2002.038452,2522.817871 
	C1991.736206,2536.353027 1973.088867,2535.145752 1964.554199,2520.466064 
	C1961.737061,2515.620605 1959.825439,2510.183838 1957.971436,2504.853516 
	C1926.577515,2414.593262 1895.666260,2324.162598 1863.820312,2234.062500 
	C1822.993530,2118.553223 1781.430176,2003.304443 1740.170898,1887.947998 
	C1739.069092,1884.867310 1737.814453,1881.841309 1735.711426,1876.418579 
	C1735.037598,1880.417847 1734.531494,1882.027832 1734.528442,1883.638916 
	C1734.225830,2041.635498 1733.952148,2199.632080 1733.703003,2357.628906 
	C1733.663086,2382.959229 1733.031372,2408.382324 1738.137573,2433.349609 
	C1740.526733,2445.031494 1743.756958,2456.692383 1748.057861,2467.801025 
	C1757.447021,2492.051025 1775.030029,2508.505859 1798.979126,2518.516846 
	C1818.954224,2526.866699 1840.075684,2529.432373 1861.275879,2531.871094 
	C1865.569092,2532.364990 1869.884644,2532.986084 1874.071289,2534.026611 
	C1886.240845,2537.050537 1892.281250,2545.380615 1891.912354,2558.182861 
	C1891.561646,2570.348877 1884.381714,2579.492432 1872.888916,2581.812744 
	C1869.009521,2582.595947 1864.935791,2582.642090 1860.950684,2582.643311 
	C1742.952759,2582.681641 1624.954956,2582.673096 1506.957031,2582.657959 
	C1504.626587,2582.657715 1502.283691,2582.613525 1499.967896,2582.378906 
	C1487.258301,2581.091553 1479.572144,2573.776367 1478.100220,2561.661133 
	C1476.528564,2548.725342 1481.986816,2539.031250 1494.491211,2535.518799 
	C1504.044067,2532.835205 1514.138916,2532.135010 1523.930908,2530.234619 
	C1536.660278,2527.764648 1549.664185,2526.036133 1561.958862,2522.128418 
	C1596.904175,2511.021240 1619.659058,2487.474365 1629.790161,2452.065186 
	C1634.854980,2434.362793 1637.782959,2416.264160 1638.161499,2397.875000 
	C1639.492432,2333.229492 1641.612427,2268.577637 1641.558350,2203.930176 
	C1641.408325,2024.269653 1640.459229,1844.609131 1639.379639,1664.951416 
	C1639.267944,1646.395142 1637.878540,1627.500488 1634.118896,1609.377563 
	C1623.151123,1556.507446 1586.533569,1524.980835 1532.860474,1519.864380 
	C1522.592529,1518.885376 1512.309326,1517.708374 1502.166260,1515.883179 
	C1492.826050,1514.202637 1486.791260,1508.131836 1484.409546,1498.922485 
	C1481.050171,1485.933228 1487.517944,1474.584717 1500.580200,1471.218018 
	C1505.654053,1469.910278 1511.127930,1469.745239 1516.418945,1469.749146 
	C1627.416870,1469.833130 1738.414795,1470.009399 1849.412720,1470.189941 
	C1860.265381,1470.207642 1860.305176,1470.261597 1863.720581,1479.978760 
	C1924.861328,1653.941040 1986.018433,1827.897705 2047.096436,2001.881958 
	C2056.248779,2027.953003 2065.013672,2054.159668 2073.979004,2080.296631 
	C2075.145020,2083.696045 2076.436035,2087.052490 2078.115234,2091.649902 
	C2152.101562,1883.502563 2225.572754,1676.803711 2299.115967,1469.903320 
	C2303.629883,1469.903320 2306.912598,1469.903687 2310.195557,1469.903442 
	C2430.193359,1469.895752 2550.191406,1469.887207 2670.189209,1469.885010 
	C2673.188721,1469.884888 2676.194092,1469.843262 2679.186523,1470.008057 
	C2692.924561,1470.764160 2700.159424,1477.543945 2701.482178,1490.804199 
	C2702.732666,1503.340698 2695.567383,1514.495605 2683.797119,1517.566772 
	C2678.994873,1518.819946 2673.926270,1519.040649 2668.986328,1519.781006 
	C2659.112305,1521.261108 2649.128906,1522.250000 2639.393066,1524.369629 
	C2603.158447,1532.258545 2579.743408,1555.055420 2565.975098,1588.698120 
	C2558.439209,1607.112061 2554.972900,1626.510132 2554.121094,1646.188599 
	C2552.477783,1684.132324 2550.819580,1722.111816 2550.729980,1760.080200 
	C2550.241455,1967.408691 2550.088135,2174.738281 2550.228027,2382.067383 
	C2550.245605,2408.013916 2552.197998,2433.995605 2554.173340,2459.890869 
	C2555.318604,2474.903076 2559.443848,2489.447998 2567.851562,2502.287109 
	C2577.275146,2516.676758 2590.331055,2524.655762 2607.991943,2524.126221 
	C2617.751465,2523.833252 2626.595459,2520.606934 2633.361328,2513.873779 
	C2640.382568,2506.886719 2647.005371,2499.234619 2652.452393,2490.982422 
	C2665.573486,2471.102295 2673.494141,2448.717285 2681.481445,2426.454590 
	C2750.849609,2233.112061 2820.123779,2039.735596 2889.517334,1846.402222 
	C2930.227295,1732.982910 2971.099121,1619.621704 3011.922852,1506.243286 
	C3013.830078,1500.945557 3015.974365,1495.733521 3018.084961,1490.284546 
	C3048.158936,1486.363159 3077.882812,1482.487427 3108.492432,1478.494629 
M3027.569824,1819.467896 
	C3020.970703,1800.588501 3014.371582,1781.709106 3007.373291,1761.687012 
	C2994.896240,1790.179443 2882.116211,2116.325195 2881.954590,2124.005371 
	C2964.791260,2124.005371 3047.626221,2124.005371 3131.865234,2124.005371 
	C3097.040039,2022.383545 3062.530273,1921.682861 3027.569824,1819.467896 
z"/>
<path fill="#FEFEFE" opacity="1.000000" stroke="none" 
	d="
M847.521851,1915.577393 
	C840.617859,1993.428101 841.257568,2070.328857 849.571838,2147.084717 
	C856.438049,2210.473145 868.564148,2272.871582 887.950684,2333.723877 
	C898.411194,2366.557861 911.685059,2398.205811 931.132690,2426.776855 
	C973.813721,2489.480957 1034.041748,2519.065430 1109.209106,2516.724609 
	C1191.762573,2514.153564 1257.461060,2477.778320 1307.265503,2412.363770 
	C1343.251831,2365.098145 1367.187012,2311.872559 1383.940552,2255.165039 
	C1387.617554,2242.718750 1391.651733,2230.370361 1395.835449,2218.083740 
	C1399.990112,2205.882324 1409.120361,2200.289307 1421.688599,2199.726318 
	C1433.419556,2199.200928 1440.807861,2203.576416 1445.087158,2214.465088 
	C1446.762573,2218.728271 1447.686768,2223.463379 1448.001465,2228.048828 
	C1448.708252,2238.349609 1449.116455,2248.690674 1449.126709,2259.015869 
	C1449.210449,2343.682373 1449.195068,2428.348633 1449.147217,2513.015137 
	C1449.141968,2522.344482 1449.003418,2531.690430 1448.417114,2540.996338 
	C1448.128052,2545.585205 1447.221680,2550.302979 1445.631348,2554.606201 
	C1442.588745,2562.839600 1436.464355,2567.563477 1427.435181,2567.747070 
	C1418.549316,2567.928223 1411.977783,2563.956543 1408.304810,2555.870361 
	C1406.526978,2551.956543 1405.443237,2547.714355 1404.197266,2543.575195 
	C1401.990723,2536.244873 1400.781982,2528.458496 1397.523071,2521.643311 
	C1393.997559,2514.270508 1389.395386,2507.048340 1383.823975,2501.110352 
	C1376.926758,2493.759277 1370.968506,2493.808105 1362.348022,2499.379150 
	C1351.156372,2506.611816 1340.258057,2514.298340 1329.066284,2521.530762 
	C1287.745605,2548.232666 1244.290405,2570.351074 1196.750610,2584.000977 
	C1125.069336,2604.582275 1052.526489,2608.011719 979.005310,2596.494873 
	C907.972656,2585.367920 841.796692,2561.196777 780.624939,2523.465576 
	C706.115295,2477.507568 650.036072,2414.607666 609.896240,2337.104492 
	C576.771545,2273.146484 556.692688,2205.143311 546.011902,2134.098633 
	C537.695618,2078.781982 535.457397,2023.213989 540.381897,1967.591797 
	C550.141968,1857.351562 580.859314,1753.734375 643.262512,1661.239014 
	C710.903625,1560.979858 803.512817,1493.929932 919.571655,1460.369019 
	C1055.757080,1420.987915 1187.806641,1434.635376 1315.552612,1494.859009 
	C1325.492676,1499.545166 1335.200317,1504.745239 1345.254761,1509.163330 
	C1365.171631,1517.915161 1378.558105,1514.125732 1390.977905,1496.163940 
	C1394.542847,1491.008179 1396.964722,1485.065186 1399.947388,1479.502686 
	C1403.086182,1473.649048 1405.767090,1467.467896 1409.550049,1462.060913 
	C1415.219849,1453.957031 1423.555664,1450.759155 1433.229370,1452.958618 
	C1442.802490,1455.135254 1447.453125,1462.334351 1449.279541,1471.433472 
	C1449.993042,1474.988159 1449.992065,1478.725708 1449.986572,1482.379517 
	C1449.842896,1578.712402 1449.682983,1675.045410 1449.422852,1771.378052 
	C1449.403076,1778.692017 1449.099365,1786.071411 1448.083862,1793.302002 
	C1446.268799,1806.225952 1437.744019,1815.952148 1427.601196,1817.666260 
	C1414.520630,1819.876831 1402.405273,1813.720215 1396.461792,1801.090942 
	C1393.646729,1795.109131 1391.689209,1788.666626 1389.866089,1782.283447 
	C1372.919067,1722.948608 1346.251831,1668.550415 1306.903931,1620.818848 
	C1272.502686,1579.087891 1231.079834,1546.798462 1178.507324,1531.179810 
	C1119.290527,1513.587280 1061.378662,1515.827148 1005.998352,1545.567383 
	C969.334412,1565.256470 943.011108,1595.271973 922.146240,1630.597656 
	C903.020203,1662.979492 890.612732,1698.126953 880.261292,1734.029663 
	C863.228149,1793.106812 853.231323,1853.499023 847.521851,1915.577393 
z"/>
<path fill="#141313" opacity="1.000000" stroke="none" 
	d="
M3027.795410,1820.225098 
	C3062.530273,1921.682861 3097.040039,2022.383545 3131.865234,2124.005371 
	C3047.626221,2124.005371 2964.791260,2124.005371 2881.954590,2124.005371 
	C2882.116211,2116.325195 2994.896240,1790.179443 3007.373291,1761.687012 
	C3014.371582,1781.709106 3020.970703,1800.588501 3027.795410,1820.225098 
z"/>
</svg>